<svg width="400" height="400" viewBox="0 0 400 400" fill="none" xmlns="http://www.w3.org/2000/svg">
<rect width="400" height="400" rx="10" fill="url(#paint0_linear_22_1142)"/>
<path d="M282.629 95H277.96C271.365 95 265.121 97.9045 260.861 102.953L199.971 175.936V176.247L138.965 103.09C134.744 98.002 128.499 95.039 121.905 95H117.353C105 95 95.0005 105.039 95.0005 117.398V282.271C95.0005 292.173 101.148 301.316 110.602 304.239C120.737 307.378 131.184 303.128 136.417 294.59L180.304 229.327C181.86 227.261 181.452 224.337 179.39 222.778C177.541 221.374 174.954 221.55 173.301 223.187L130.114 260.575C129.414 261.218 128.324 261.179 127.682 260.477C127.39 260.146 127.215 259.717 127.235 259.269V141.901C127.235 140.926 128.032 140.166 129.005 140.166C129.511 140.166 129.997 140.4 130.309 140.77L192.443 215C198.512 221.355 202.325 221.238 207.325 215.234L269.556 140.634C269.887 140.244 270.354 140.029 270.86 140.029C271.832 140.029 272.61 140.789 272.63 141.764V259.269C272.63 259.717 272.474 260.146 272.183 260.477C271.541 261.179 270.451 261.238 269.751 260.575L226.564 223.187C224.911 221.55 222.323 221.394 220.475 222.778C218.413 224.337 218.024 227.261 219.561 229.327L263.448 294.59C267.514 301.218 274.731 305.273 282.493 305.273H282.571C294.943 305.312 305 295.273 305 282.875V117.417C305 105.039 294.982 95.0195 282.648 95.0195L282.629 95Z" fill="white"/>
<defs>
<linearGradient id="paint0_linear_22_1142" x1="0" y1="200.001" x2="400" y2="200.001" gradientUnits="userSpaceOnUse">
<stop stop-color="#9797FF"/>
<stop offset="1" stop-color="#17D9D4"/>
</linearGradient>
</defs>
</svg>
